<svg id="Layer_1" data-name="Layer 1" xmlns="http://www.w3.org/2000/svg" viewBox="0 0 297 297"><defs><style>.cls-1{fill:none;stroke:#585858;stroke-miterlimit:10;stroke-width:22px;}.cls-2{fill:#585858;}</style></defs><title>logo</title><rect class="cls-1" x="11" y="11" width="275" height="275"/><path class="cls-2" d="M200.58,75.46h-25V53.13h78.83V75.46h-25v63.09h-28.8Z" transform="translate(-1.5 -1.5)"/><path class="cls-2" d="M70.88,75.44h-25V53.11h78.83V75.44h-25v63.09H70.88Z" transform="translate(-1.5 -1.5)"/><path class="cls-2" d="M164.54,116.17h25v22.33H110.73V116.17h25V53.09h28.8Z" transform="translate(-1.5 -1.5)"/><path class="cls-2" d="M99.42,224.54h25v22.33H45.61V224.54h25V161.45h28.8Z" transform="translate(-1.5 -1.5)"/><path class="cls-2" d="M229.12,224.56h25v22.33H175.31V224.56h25V161.47h28.8Z" transform="translate(-1.5 -1.5)"/><path class="cls-2" d="M135.46,183.83h-25V161.49h78.83v22.33h-25v63.09h-28.8Z" transform="translate(-1.5 -1.5)"/></svg>