<?xml version="1.0" encoding="utf-8"?>
<!-- Generator: Adobe Illustrator 21.0.2, SVG Export Plug-In . SVG Version: 6.00 Build 0)  -->
<svg version="1.1" id="Layer_1" xmlns="http://www.w3.org/2000/svg" xmlns:xlink="http://www.w3.org/1999/xlink" x="0px" y="0px"
	 viewBox="0 0 1500 1500" style="enable-background:new 0 0 1500 1500;" xml:space="preserve">
<style type="text/css">
	.st0{enable-background:new    ;}
	.st1{clip-path:url(#SVGID_2_);}
	.st2{fill:#FF9A00;}
	.st3{clip-path:url(#SVGID_4_);}
	.st4{fill:#84CAE7;}
	.st5{clip-path:url(#SVGID_6_);}
	.st6{fill:#FFDB00;}
</style>
<g>
	<g>
		<g>
			<g class="st0">
				<defs>
					<polygon id="SVGID_1_" class="st0" points="181,481.5 747.5,152.3 1321.5,483.7 755,812.9 					"/>
				</defs>
				<clipPath id="SVGID_2_">
					<use xlink:href="#SVGID_1_"  style="overflow:visible;"/>
				</clipPath>
				<g class="st1">
					<g>
						<g>
							<g>
								<polyline class="st2" points="1321.5,483.7 747.5,152.3 556.5,263.3 751.4,375.8 375.9,594.1 565.4,703.5 941,485.3 
									1130.5,594.7 1321.5,483.7 								"/>
							</g>
						</g>
					</g>
				</g>
			</g>
		</g>
	</g>
	<g>
		<g>
			<g class="st0">
				<defs>
					<polygon id="SVGID_3_" class="st0" points="771.6,1510.8 769.8,854.3 1343.8,522.9 1345.6,1179.4 					"/>
				</defs>
				<clipPath id="SVGID_4_">
					<use xlink:href="#SVGID_3_"  style="overflow:visible;"/>
				</clipPath>
				<g class="st3">
					<g>
						<g>
							<g>
								<polyline class="st4" points="1343.8,522.9 769.8,854.3 770.4,1075.2 965.3,962.6 966.5,1398.3 1156.1,1288.8 1154.8,853.2 
									1344.4,743.8 1343.8,522.9 								"/>
							</g>
						</g>
					</g>
				</g>
			</g>
		</g>
	</g>
	<g>
		<g>
			<g class="st0">
				<defs>
					<polygon id="SVGID_5_" class="st0" points="152.8,1184.4 154.7,522.8 728.7,854.2 726.8,1515.8 					"/>
				</defs>
				<clipPath id="SVGID_6_">
					<use xlink:href="#SVGID_5_"  style="overflow:visible;"/>
				</clipPath>
				<g class="st5">
					<g>
						<g>
							<g>
								<polyline class="st6" points="728.7,854.2 154.7,522.8 154.1,743.7 349,856.2 347.7,1296.9 537.3,1406.4 538.5,965.6 
									728.1,1075.1 728.7,854.2 								"/>
							</g>
						</g>
					</g>
				</g>
			</g>
		</g>
	</g>
</g>
</svg>
