<?xml version="1.0" encoding="utf-8"?>
<!-- Generator: Adobe Illustrator 21.0.2, SVG Export Plug-In . SVG Version: 6.00 Build 0)  -->
<svg version="1.1" id="Layer_1" xmlns="http://www.w3.org/2000/svg" xmlns:xlink="http://www.w3.org/1999/xlink" x="0px" y="0px"
	 viewBox="0 0 1500 1500" style="enable-background:new 0 0 1500 1500;" xml:space="preserve">
<style type="text/css">
	.st0{enable-background:new    ;}
	.st1{clip-path:url(#SVGID_2_);}
	.st2{fill:#FF9A00;}
	.st3{clip-path:url(#SVGID_4_);}
	.st4{clip-path:url(#SVGID_6_);}
</style>
<g>
	<g>
		<g>
			<g class="st0">
				<defs>
					<polygon id="SVGID_1_" class="st0" points="431.3,595.1 748.3,410.9 1069.4,596.3 752.5,780.5 					"/>
				</defs>
				<clipPath id="SVGID_2_">
					<use xlink:href="#SVGID_1_"  style="overflow:visible;"/>
				</clipPath>
				<g class="st1">
					<g>
						<g>
							<g>
								<polyline class="st2" points="1069.4,596.3 748.3,410.9 641.4,473 750.5,535.9 540.3,658 646.4,719.3 856.5,597.2 
									962.6,658.4 1069.4,596.3 								"/>
							</g>
						</g>
					</g>
				</g>
			</g>
		</g>
	</g>
	<g>
		<g>
			<g class="st0">
				<defs>
					<polygon id="SVGID_3_" class="st0" points="761.8,1177 760.7,809.6 1081.9,624.2 1082.9,991.5 					"/>
				</defs>
				<clipPath id="SVGID_4_">
					<use xlink:href="#SVGID_3_"  style="overflow:visible;"/>
				</clipPath>
				<g class="st3">
					<g>
						<g>
							<g>
								<polyline class="st2" points="1081.9,624.2 760.7,809.6 761.1,933.2 870.1,870.3 870.8,1114 976.9,1052.8 976.2,809 
									1082.2,747.8 1081.9,624.2 								"/>
							</g>
						</g>
					</g>
				</g>
			</g>
		</g>
	</g>
	<g>
		<g>
			<g class="st0">
				<defs>
					<polygon id="SVGID_5_" class="st0" points="415.5,994.3 416.6,624.2 737.7,809.6 736.7,1179.8 					"/>
				</defs>
				<clipPath id="SVGID_6_">
					<use xlink:href="#SVGID_5_"  style="overflow:visible;"/>
				</clipPath>
				<g class="st4">
					<g>
						<g>
							<g>
								<polyline class="st2" points="737.7,809.6 416.6,624.2 416.2,747.7 525.3,810.7 524.6,1057.3 630.6,1118.5 631.3,871.9 
									737.4,933.2 737.7,809.6 								"/>
							</g>
						</g>
					</g>
				</g>
			</g>
		</g>
	</g>
</g>
</svg>
